solid OpenSCAD_Model
  facet normal 0 -1 0
    outer loop
      vertex -4.5 -4.5 -1
      vertex 4.5 -4.5 -1
      vertex 4.5 -4.5 0
    endloop
  endfacet
  facet normal 0 -1 0
    outer loop
      vertex 1.5 -4.5 3
      vertex -4.5 -4.5 -1
      vertex 3.5 -4.5 4
    endloop
  endfacet
  facet normal 0 -1 0
    outer loop
      vertex 3.5 -4.5 4
      vertex -4.5 -4.5 -1
      vertex 4.5 -4.5 0
    endloop
  endfacet
  facet normal 0 -1 0
    outer loop
      vertex 2.5 -4.5 5
      vertex 1.5 -4.5 3
      vertex 3.5 -4.5 4
    endloop
  endfacet
  facet normal 0 -1 0
    outer loop
      vertex -0.5 -4.5 5
      vertex -4.5 -4.5 -1
      vertex 0.5 -4.5 5
    endloop
  endfacet
  facet normal 0 -1 0
    outer loop
      vertex -2.5 -4.5 3
      vertex -4.5 -4.5 -1
      vertex -0.5 -4.5 5
    endloop
  endfacet
  facet normal 0 -1 0
    outer loop
      vertex -3.5 -4.5 5
      vertex -4.5 -4.5 -1
      vertex -2.5 -4.5 3
    endloop
  endfacet
  facet normal 0 -1 0
    outer loop
      vertex -1.5 -4.5 5
      vertex -2.5 -4.5 3
      vertex -0.5 -4.5 5
    endloop
  endfacet
  facet normal 0 -1 0
    outer loop
      vertex -3.5 -4.5 5
      vertex -4.5 -4.5 6
      vertex -4.5 -4.5 -1
    endloop
  endfacet
  facet normal 0 -1 0
    outer loop
      vertex 1.5 -4.5 3
      vertex 0.5 -4.5 5
      vertex -4.5 -4.5 -1
    endloop
  endfacet
  facet normal -1 0 0
    outer loop
      vertex -4.5 -4.5 6
      vertex -4.5 -3.5 1
      vertex -4.5 -4.5 -1
    endloop
  endfacet
  facet normal -1 0 0
    outer loop
      vertex -4.5 -4.5 -1
      vertex -4.5 -3.5 1
      vertex -4.5 -2.5 2
    endloop
  endfacet
  facet normal -1 0 0
    outer loop
      vertex -4.5 -2.5 2
      vertex -4.5 -1.5 7
      vertex -4.5 -0.5 3
    endloop
  endfacet
  facet normal -1 0 0
    outer loop
      vertex -4.5 -2.5 2
      vertex -4.5 -0.5 3
      vertex -4.5 -4.5 -1
    endloop
  endfacet
  facet normal -1 0 0
    outer loop
      vertex -4.5 -0.5 3
      vertex -4.5 0.5 6
      vertex -4.5 1.5 6
    endloop
  endfacet
  facet normal -1 0 0
    outer loop
      vertex -4.5 -0.5 3
      vertex -4.5 1.5 6
      vertex -4.5 2.5 4
    endloop
  endfacet
  facet normal -1 0 0
    outer loop
      vertex -4.5 -0.5 3
      vertex -4.5 2.5 4
      vertex -4.5 -4.5 -1
    endloop
  endfacet
  facet normal -1 0 0
    outer loop
      vertex -4.5 -4.5 -1
      vertex -4.5 2.5 4
      vertex -4.5 3.5 3
    endloop
  endfacet
  facet normal -1 0 0
    outer loop
      vertex -4.5 3.5 3
      vertex -4.5 4.5 3
      vertex -4.5 -4.5 -1
    endloop
  endfacet
  facet normal -1 0 0
    outer loop
      vertex -4.5 -4.5 -1
      vertex -4.5 4.5 3
      vertex -4.5 4.5 -1
    endloop
  endfacet
  facet normal -0.507093 0.845154 0.169031
    outer loop
      vertex -4.5 -4.5 6
      vertex -4 -4 5
      vertex -4.5 -3.5 1
    endloop
  endfacet
  facet normal 0.57735 0.57735 0.57735
    outer loop
      vertex -4.5 -4.5 6
      vertex -3.5 -4.5 5
      vertex -4 -4 5
    endloop
  endfacet
  facet normal 0 0 -1
    outer loop
      vertex -4.5 4.5 -1
      vertex 4.5 4.5 -1
      vertex -4.5 -4.5 -1
    endloop
  endfacet
  facet normal 0 0 -1
    outer loop
      vertex -4.5 -4.5 -1
      vertex 4.5 4.5 -1
      vertex 4.5 -4.5 -1
    endloop
  endfacet
  facet normal -0.688247 -0.688247 0.229416
    outer loop
      vertex -4 -4 5
      vertex -3.5 -4.5 5
      vertex -3.5 -3.5 8
    endloop
  endfacet
  facet normal 0.428571 -0.857143 0.285714
    outer loop
      vertex -3.5 -4.5 5
      vertex -3 -4 5.75
      vertex -3.5 -3.5 8
    endloop
  endfacet
  facet normal 0.481543 -0.842701 0.240772
    outer loop
      vertex -3.5 -4.5 5
      vertex -2.5 -4.5 3
      vertex -3 -4 5.75
    endloop
  endfacet
  facet normal 0.341882 -0.911685 0.227921
    outer loop
      vertex -3 -4 5.75
      vertex -2.5 -4.5 3
      vertex -2.5 -3.5 7
    endloop
  endfacet
  facet normal 0.235702 -0.942809 0.235702
    outer loop
      vertex -2.5 -4.5 3
      vertex -2 -4 4.5
      vertex -2.5 -3.5 7
    endloop
  endfacet
  facet normal -0.816497 -0.408248 0.408248
    outer loop
      vertex -2.5 -4.5 3
      vertex -1.5 -4.5 5
      vertex -2 -4 4.5
    endloop
  endfacet
  facet normal 0.408248 0.816497 0.408248
    outer loop
      vertex -2 -4 4.5
      vertex -1.5 -4.5 5
      vertex -1.5 -3.5 3
    endloop
  endfacet
  facet normal -0.557086 0.742781 0.371391
    outer loop
      vertex -1.5 -4.5 5
      vertex -1 -4 4.75
      vertex -1.5 -3.5 3
    endloop
  endfacet
  facet normal 0 0.447214 0.894427
    outer loop
      vertex -1.5 -4.5 5
      vertex -0.5 -4.5 5
      vertex -1 -4 4.75
    endloop
  endfacet
  facet normal -0.727607 -0.485071 0.485071
    outer loop
      vertex -1 -4 4.75
      vertex -0.5 -4.5 5
      vertex -0.5 -3.5 6
    endloop
  endfacet
  facet normal 0.57735 -0.57735 0.57735
    outer loop
      vertex -0.5 -4.5 5
      vertex 0 -4 5
      vertex -0.5 -3.5 6
    endloop
  endfacet
  facet normal 0 0 1
    outer loop
      vertex -0.5 -4.5 5
      vertex 0.5 -4.5 5
      vertex 0 -4 5
    endloop
  endfacet
  facet normal 0.57735 0.57735 0.57735
    outer loop
      vertex 0 -4 5
      vertex 0.5 -4.5 5
      vertex 0.5 -3.5 4
    endloop
  endfacet
  facet normal 0.727607 0.485071 0.485071
    outer loop
      vertex 0.5 -4.5 5
      vertex 1 -4 3.75
      vertex 0.5 -3.5 4
    endloop
  endfacet
  facet normal 0.872872 0.218218 0.436436
    outer loop
      vertex 0.5 -4.5 5
      vertex 1.5 -4.5 3
      vertex 1 -4 3.75
    endloop
  endfacet
  facet normal 0.83205 0 0.5547
    outer loop
      vertex 1 -4 3.75
      vertex 1.5 -4.5 3
      vertex 1.5 -3.5 3
    endloop
  endfacet
  facet normal -0.447214 0 0.894427
    outer loop
      vertex 1.5 -4.5 3
      vertex 2 -4 3.25
      vertex 1.5 -3.5 3
    endloop
  endfacet
  facet normal -0.742781 0.557086 0.371391
    outer loop
      vertex 1.5 -4.5 3
      vertex 2.5 -4.5 5
      vertex 2 -4 3.25
    endloop
  endfacet
  facet normal -0.156174 0.937043 0.312348
    outer loop
      vertex 2 -4 3.25
      vertex 2.5 -4.5 5
      vertex 2.5 -3.5 2
    endloop
  endfacet
  facet normal 0.301511 0.904534 0.301511
    outer loop
      vertex 3.5 -4.5 4
      vertex 3.5 -3.5 1
      vertex 2.5 -4.5 5
    endloop
  endfacet
  facet normal 0.301511 0.904534 0.301511
    outer loop
      vertex 2.5 -4.5 5
      vertex 3.5 -3.5 1
      vertex 2.5 -3.5 2
    endloop
  endfacet
  facet normal 0.428571 0.857143 0.285714
    outer loop
      vertex 3.5 -4.5 4
      vertex 4 -4 1.75
      vertex 3.5 -3.5 1
    endloop
  endfacet
  facet normal 0.963087 0.120386 0.240772
    outer loop
      vertex 3.5 -4.5 4
      vertex 4.5 -4.5 0
      vertex 4 -4 1.75
    endloop
  endfacet
  facet normal 0.557086 -0.742781 0.371391
    outer loop
      vertex 4 -4 1.75
      vertex 4.5 -4.5 0
      vertex 4.5 -3.5 2
    endloop
  endfacet
  facet normal 1 0 0
    outer loop
      vertex 4.5 -4.5 -1
      vertex 4.5 4.5 -1
      vertex 4.5 4.5 0
    endloop
  endfacet
  facet normal 1 0 0
    outer loop
      vertex 4.5 1.5 0
      vertex 4.5 -4.5 -1
      vertex 4.5 3.5 0
    endloop
  endfacet
  facet normal 1 0 0
    outer loop
      vertex 4.5 3.5 0
      vertex 4.5 -4.5 -1
      vertex 4.5 4.5 0
    endloop
  endfacet
  facet normal 1 0 0
    outer loop
      vertex 4.5 2.5 2
      vertex 4.5 1.5 0
      vertex 4.5 3.5 0
    endloop
  endfacet
  facet normal 1 0 0
    outer loop
      vertex 4.5 -0.5 0
      vertex 4.5 -4.5 -1
      vertex 4.5 1.5 0
    endloop
  endfacet
  facet normal 1 0 0
    outer loop
      vertex 4.5 0.5 1
      vertex 4.5 -0.5 0
      vertex 4.5 1.5 0
    endloop
  endfacet
  facet normal 1 0 0
    outer loop
      vertex 4.5 -1.5 0
      vertex 4.5 -4.5 -1
      vertex 4.5 -0.5 0
    endloop
  endfacet
  facet normal 1 0 0
    outer loop
      vertex 4.5 -3.5 2
      vertex 4.5 -4.5 -1
      vertex 4.5 -2.5 4
    endloop
  endfacet
  facet normal 1 0 0
    outer loop
      vertex 4.5 -4.5 0
      vertex 4.5 -4.5 -1
      vertex 4.5 -3.5 2
    endloop
  endfacet
  facet normal 1 0 0
    outer loop
      vertex 4.5 -1.5 0
      vertex 4.5 -2.5 4
      vertex 4.5 -4.5 -1
    endloop
  endfacet
  facet normal 0 1 0
    outer loop
      vertex -4.5 4.5 3
      vertex -3.5 4.5 2
      vertex -4.5 4.5 -1
    endloop
  endfacet
  facet normal 0 1 0
    outer loop
      vertex -4.5 4.5 -1
      vertex -3.5 4.5 2
      vertex -2.5 4.5 0
    endloop
  endfacet
  facet normal 0 1 0
    outer loop
      vertex -1.5 4.5 3
      vertex -0.5 4.5 4
      vertex -2.5 4.5 0
    endloop
  endfacet
  facet normal 0 1 0
    outer loop
      vertex -2.5 4.5 0
      vertex -0.5 4.5 4
      vertex 0.5 4.5 3
    endloop
  endfacet
  facet normal 0 1 0
    outer loop
      vertex -2.5 4.5 0
      vertex 0.5 4.5 3
      vertex 1.5 4.5 0
    endloop
  endfacet
  facet normal 0 1 0
    outer loop
      vertex -2.5 4.5 0
      vertex 1.5 4.5 0
      vertex -4.5 4.5 -1
    endloop
  endfacet
  facet normal 0 1 0
    outer loop
      vertex 1.5 4.5 0
      vertex 2.5 4.5 0
      vertex -4.5 4.5 -1
    endloop
  endfacet
  facet normal 0 1 0
    outer loop
      vertex 2.5 4.5 0
      vertex 3.5 4.5 2
      vertex 4.5 4.5 0
    endloop
  endfacet
  facet normal 0 1 0
    outer loop
      vertex 2.5 4.5 0
      vertex 4.5 4.5 0
      vertex -4.5 4.5 -1
    endloop
  endfacet
  facet normal 0 1 0
    outer loop
      vertex -4.5 4.5 -1
      vertex 4.5 4.5 0
      vertex 4.5 4.5 -1
    endloop
  endfacet
  facet normal 0.666667 0.333333 0.666667
    outer loop
      vertex -4.5 4.5 3
      vertex -4 4 2.75
      vertex -3.5 4.5 2
    endloop
  endfacet
  facet normal 0.447214 0 0.894427
    outer loop
      vertex -4.5 3.5 3
      vertex -4 4 2.75
      vertex -4.5 4.5 3
    endloop
  endfacet
  facet normal 0 0.447214 0.894427
    outer loop
      vertex -4.5 3.5 3
      vertex -3.5 3.5 3
      vertex -4 4 2.75
    endloop
  endfacet
  facet normal 0 0.707107 0.707107
    outer loop
      vertex -4 2 4.5
      vertex -3.5 2.5 4
      vertex -4.5 2.5 4
    endloop
  endfacet
  facet normal 0 0.707107 0.707107
    outer loop
      vertex -4.5 2.5 4
      vertex -3.5 2.5 4
      vertex -3.5 3.5 3
    endloop
  endfacet
  facet normal 0 0.707107 0.707107
    outer loop
      vertex -4.5 2.5 4
      vertex -3.5 3.5 3
      vertex -4.5 3.5 3
    endloop
  endfacet
  facet normal 0.408248 0.816497 0.408248
    outer loop
      vertex -4.5 1.5 6
      vertex -4 2 4.5
      vertex -4.5 2.5 4
    endloop
  endfacet
  facet normal 0.816497 0.408248 0.408248
    outer loop
      vertex -4.5 1.5 6
      vertex -3.5 1.5 4
      vertex -4 2 4.5
    endloop
  endfacet
  facet normal 0.872872 0.218218 0.436436
    outer loop
      vertex -4.5 1.5 6
      vertex -4 1 5.25
      vertex -3.5 1.5 4
    endloop
  endfacet
  facet normal 0.83205 0 0.5547
    outer loop
      vertex -4.5 0.5 6
      vertex -4 1 5.25
      vertex -4.5 1.5 6
    endloop
  endfacet
  facet normal 0.666667 0.333333 0.666667
    outer loop
      vertex -4.5 0.5 6
      vertex -3.5 0.5 5
      vertex -4 1 5.25
    endloop
  endfacet
  facet normal 0.57735 -0.57735 0.57735
    outer loop
      vertex -4.5 0.5 6
      vertex -4 0 5
      vertex -3.5 0.5 5
    endloop
  endfacet
  facet normal -0.301511 -0.904534 0.301511
    outer loop
      vertex -4.5 -0.5 3
      vertex -4 0 5
      vertex -4.5 0.5 6
    endloop
  endfacet
  facet normal -0.904534 -0.301511 0.301511
    outer loop
      vertex -4.5 -0.5 3
      vertex -3.5 -0.5 6
      vertex -4 0 5
    endloop
  endfacet
  facet normal -0.744208 0.620174 0.248069
    outer loop
      vertex -4.5 -0.5 3
      vertex -4 -1 5.75
      vertex -3.5 -0.5 6
    endloop
  endfacet
  facet normal -0.341882 0.911685 0.227921
    outer loop
      vertex -4.5 -1.5 7
      vertex -4 -1 5.75
      vertex -4.5 -0.5 3
    endloop
  endfacet
  facet normal 0 0.928477 0.371391
    outer loop
      vertex -4.5 -1.5 7
      vertex -3.5 -1.5 7
      vertex -4 -1 5.75
    endloop
  endfacet
  facet normal 0 -0.928477 0.371391
    outer loop
      vertex -4.5 -1.5 7
      vertex -4 -2 5.75
      vertex -3.5 -1.5 7
    endloop
  endfacet
  facet normal -0.440225 -0.880451 0.17609
    outer loop
      vertex -4.5 -2.5 2
      vertex -4 -2 5.75
      vertex -4.5 -1.5 7
    endloop
  endfacet
  facet normal -0.880451 -0.440225 0.17609
    outer loop
      vertex -4.5 -2.5 2
      vertex -3.5 -2.5 7
      vertex -4 -2 5.75
    endloop
  endfacet
  facet normal -0.980581 0 0.196116
    outer loop
      vertex -4.5 -2.5 2
      vertex -4 -3 4.5
      vertex -3.5 -2.5 7
    endloop
  endfacet
  facet normal -0.973329 -0.162221 0.162221
    outer loop
      vertex -4.5 -3.5 1
      vertex -4 -3 4.5
      vertex -4.5 -2.5 2
    endloop
  endfacet
  facet normal -0.989949 0 0.141421
    outer loop
      vertex -4.5 -3.5 1
      vertex -3.5 -3.5 8
      vertex -4 -3 4.5
    endloop
  endfacet
  facet normal -0.980196 0.140028 0.140028
    outer loop
      vertex -4.5 -3.5 1
      vertex -4 -4 5
      vertex -3.5 -3.5 8
    endloop
  endfacet
  facet normal 0.870388 0.348155 0.348155
    outer loop
      vertex -3.5 -3.5 8
      vertex -3 -3 6.25
      vertex -3.5 -2.5 7
    endloop
  endfacet
  facet normal 0.348155 0.870388 0.348155
    outer loop
      vertex -3.5 -3.5 8
      vertex -2.5 -3.5 7
      vertex -3 -3 6.25
    endloop
  endfacet
  facet normal 0.264906 -0.927173 0.264906
    outer loop
      vertex -3.5 -3.5 8
      vertex -3 -4 5.75
      vertex -2.5 -3.5 7
    endloop
  endfacet
  facet normal -0.973329 0.162221 0.162221
    outer loop
      vertex -4 -3 4.5
      vertex -3.5 -3.5 8
      vertex -3.5 -2.5 7
    endloop
  endfacet
  facet normal 0.829561 0.518476 0.20739
    outer loop
      vertex -2.5 -3.5 7
      vertex -1.5 -3.5 3
      vertex -2 -3 3.75
    endloop
  endfacet
  facet normal 0.942809 -0.235702 0.235702
    outer loop
      vertex -2.5 -3.5 7
      vertex -2 -4 4.5
      vertex -1.5 -3.5 3
    endloop
  endfacet
  facet normal 0.518476 0.829561 0.20739
    outer loop
      vertex -2.5 -3.5 7
      vertex -2 -3 3.75
      vertex -3 -3 6.25
    endloop
  endfacet
  facet normal 0.518476 0.829561 0.20739
    outer loop
      vertex -3 -3 6.25
      vertex -2 -3 3.75
      vertex -2.5 -2.5 3
    endloop
  endfacet
  facet normal -0.870388 0.348155 0.348155
    outer loop
      vertex -1.5 -3.5 3
      vertex -1 -3 3.75
      vertex -1.5 -2.5 2
    endloop
  endfacet
  facet normal -0.857143 0.428571 0.285714
    outer loop
      vertex -1.5 -3.5 3
      vertex -0.5 -3.5 6
      vertex -1 -3 3.75
    endloop
  endfacet
  facet normal -0.937043 0.156174 0.312348
    outer loop
      vertex -1.5 -3.5 3
      vertex -1 -4 4.75
      vertex -0.5 -3.5 6
    endloop
  endfacet
  facet normal 0.870388 0.348155 0.348155
    outer loop
      vertex -2 -3 3.75
      vertex -1.5 -3.5 3
      vertex -1.5 -2.5 2
    endloop
  endfacet
  facet normal 0.557086 0.742781 0.371391
    outer loop
      vertex -0.5 -3.5 6
      vertex 0 -3 4.25
      vertex -0.5 -2.5 4
    endloop
  endfacet
  facet normal 0.742781 0.557086 0.371391
    outer loop
      vertex -0.5 -3.5 6
      vertex 0.5 -3.5 4
      vertex 0 -3 4.25
    endloop
  endfacet
  facet normal 0.894427 0 0.447214
    outer loop
      vertex -0.5 -3.5 6
      vertex 0 -4 5
      vertex 0.5 -3.5 4
    endloop
  endfacet
  facet normal -0.745356 0.596285 0.298142
    outer loop
      vertex -1 -3 3.75
      vertex -0.5 -3.5 6
      vertex -0.5 -2.5 4
    endloop
  endfacet
  facet normal 0.57735 0.57735 0.57735
    outer loop
      vertex 0.5 -0.5 1
      vertex -2.5 -1.5 5
      vertex -1.5 -1.5 4
    endloop
  endfacet
  facet normal 0.57735 0.57735 0.57735
    outer loop
      vertex -0.5 -1.5 3
      vertex -0.5 -2.5 4
      vertex 0.5 -2.5 3
    endloop
  endfacet
  facet normal 0.57735 0.57735 0.57735
    outer loop
      vertex 0.5 -2.5 3
      vertex 0.5 -3.5 4
      vertex 1.5 -3.5 3
    endloop
  endfacet
  facet normal 0.57735 0.57735 0.57735
    outer loop
      vertex 0.5 -2.5 3
      vertex 1.5 -3.5 3
      vertex 1.5 -2.5 2
    endloop
  endfacet
  facet normal 0.57735 0.57735 0.57735
    outer loop
      vertex 0.5 -2.5 3
      vertex 1.5 -2.5 2
      vertex -0.5 -1.5 3
    endloop
  endfacet
  facet normal 0.57735 0.57735 0.57735
    outer loop
      vertex 0.5 -1.5 2
      vertex 1.5 -2.5 2
      vertex 1.5 -1.5 1
    endloop
  endfacet
  facet normal 0.57735 0.57735 0.57735
    outer loop
      vertex -0.5 -1.5 3
      vertex 1.5 -2.5 2
      vertex 0.5 -1.5 2
    endloop
  endfacet
  facet normal 0.57735 0.57735 0.57735
    outer loop
      vertex -0.5 -1.5 3
      vertex 0.5 -0.5 1
      vertex -1.5 -1.5 4
    endloop
  endfacet
  facet normal 0.57735 0.57735 0.57735
    outer loop
      vertex 0.5 -1.5 2
      vertex 0.5 -0.5 1
      vertex -0.5 -1.5 3
    endloop
  endfacet
  facet normal 0.57735 0.57735 0.57735
    outer loop
      vertex 0.5 -0.5 1
      vertex -0.5 -0.5 2
      vertex -2.5 -1.5 5
    endloop
  endfacet
  facet normal 0.57735 0.57735 0.57735
    outer loop
      vertex -0.5 -0.5 2
      vertex -1.5 -0.5 3
      vertex -2.5 -1.5 5
    endloop
  endfacet
  facet normal 0.57735 0.57735 0.57735
    outer loop
      vertex -0.5 0.5 1
      vertex -1.5 0.5 2
      vertex -1.5 -0.5 3
    endloop
  endfacet
  facet normal 0.57735 0.57735 0.57735
    outer loop
      vertex -0.5 0.5 1
      vertex -1.5 -0.5 3
      vertex -0.5 -0.5 2
    endloop
  endfacet
  facet normal 0.57735 0.57735 0.57735
    outer loop
      vertex -2.5 -0.5 4
      vertex -2.5 -1.5 5
      vertex -1.5 -0.5 3
    endloop
  endfacet
  facet normal 0.666667 0.333333 0.666667
    outer loop
      vertex 0.5 -3.5 4
      vertex 1 -4 3.75
      vertex 1.5 -3.5 3
    endloop
  endfacet
  facet normal 0.727607 0.485071 0.485071
    outer loop
      vertex 0 -3 4.25
      vertex 0.5 -3.5 4
      vertex 0.5 -2.5 3
    endloop
  endfacet
  facet normal -0.333333 0.666667 0.666667
    outer loop
      vertex 1.5 -3.5 3
      vertex 2 -3 2.75
      vertex 1.5 -2.5 2
    endloop
  endfacet
  facet normal 0.666667 -0.333333 0.666667
    outer loop
      vertex 1.5 -3.5 3
      vertex 2.5 -3.5 2
      vertex 2 -3 2.75
    endloop
  endfacet
  facet normal 0.485071 0.727607 0.485071
    outer loop
      vertex 1.5 -3.5 3
      vertex 2 -4 3.25
      vertex 2.5 -3.5 2
    endloop
  endfacet
  facet normal 0.666667 -0.666667 0.333333
    outer loop
      vertex 2.5 -3.5 2
      vertex 3 -3 2
      vertex 2.5 -2.5 4
    endloop
  endfacet
  facet normal 0.57735 -0.57735 0.57735
    outer loop
      vertex 2.5 -3.5 2
      vertex 3.5 -3.5 1
      vertex 3 -3 2
    endloop
  endfacet
  facet normal -0.218218 -0.872872 0.436436
    outer loop
      vertex 2 -3 2.75
      vertex 2.5 -3.5 2
      vertex 2.5 -2.5 4
    endloop
  endfacet
  facet normal -0.894427 0 0.447214
    outer loop
      vertex 3.5 -3.5 1
      vertex 4 -3 2
      vertex 3.5 -2.5 1
    endloop
  endfacet
  facet normal -0.57735 -0.57735 0.57735
    outer loop
      vertex 3.5 -3.5 1
      vertex 4.5 -3.5 2
      vertex 4 -3 2
    endloop
  endfacet
  facet normal -0.666667 0.333333 0.666667
    outer loop
      vertex 3.5 -3.5 1
      vertex 4 -4 1.75
      vertex 4.5 -3.5 2
    endloop
  endfacet
  facet normal 0.894427 0 0.447214
    outer loop
      vertex 3 -3 2
      vertex 3.5 -3.5 1
      vertex 3.5 -2.5 1
    endloop
  endfacet
  facet normal -0.666667 -0.666667 0.333333
    outer loop
      vertex 4 -3 2
      vertex 4.5 -3.5 2
      vertex 4.5 -2.5 4
    endloop
  endfacet
  facet normal -0.904534 -0.301511 0.301511
    outer loop
      vertex 3.5 -2.5 1
      vertex 4 -3 2
      vertex 4.5 -2.5 4
    endloop
  endfacet
  facet normal -0.744208 0.620174 0.248069
    outer loop
      vertex 3.5 -2.5 1
      vertex 4.5 -2.5 4
      vertex 4 -2 1.25
    endloop
  endfacet
  facet normal -0.341882 0.911685 0.227921
    outer loop
      vertex 4 -2 1.25
      vertex 4.5 -2.5 4
      vertex 4.5 -1.5 0
    endloop
  endfacet
  facet normal 0 0.928477 0.371391
    outer loop
      vertex 3.5 -1.5 0
      vertex 4 -2 1.25
      vertex 4.5 -1.5 0
    endloop
  endfacet
  facet normal 0 0 1
    outer loop
      vertex 3.5 -1.5 0
      vertex 4.5 -1.5 0
      vertex 4.5 -0.5 0
    endloop
  endfacet
  facet normal 0 0 1
    outer loop
      vertex 3.5 -0.5 0
      vertex 3.5 -1.5 0
      vertex 4.5 -0.5 0
    endloop
  endfacet
  facet normal 0 -0.707107 0.707107
    outer loop
      vertex 3 0 0.5
      vertex 3.5 -0.5 0
      vertex 4.5 -0.5 0
    endloop
  endfacet
  facet normal 0 -0.707107 0.707107
    outer loop
      vertex 3.5 0.5 1
      vertex 3 0 0.5
      vertex 4.5 0.5 1
    endloop
  endfacet
  facet normal 0 -0.707107 0.707107
    outer loop
      vertex 4.5 0.5 1
      vertex 3 0 0.5
      vertex 4.5 -0.5 0
    endloop
  endfacet
  facet normal 0 0.707107 0.707107
    outer loop
      vertex 4.5 0.5 1
      vertex 4.5 1.5 0
      vertex 3.5 0.5 1
    endloop
  endfacet
  facet normal 0 0.707107 0.707107
    outer loop
      vertex 3.5 0.5 1
      vertex 4.5 1.5 0
      vertex 3.5 1.5 0
    endloop
  endfacet
  facet normal 0 -0.894427 0.447214
    outer loop
      vertex 3.5 1.5 0
      vertex 4.5 1.5 0
      vertex 4.5 2.5 2
    endloop
  endfacet
  facet normal 0 -0.894427 0.447214
    outer loop
      vertex 3.5 2.5 2
      vertex 3.5 1.5 0
      vertex 4.5 2.5 2
    endloop
  endfacet
  facet normal 0 0.707107 0.707107
    outer loop
      vertex 3.5 2.5 2
      vertex 4.5 2.5 2
      vertex 4 3 1.5
    endloop
  endfacet
  facet normal 0.408248 0.816497 0.408248
    outer loop
      vertex 4 3 1.5
      vertex 4.5 2.5 2
      vertex 4.5 3.5 0
    endloop
  endfacet
  facet normal 0.816497 0.408248 0.408248
    outer loop
      vertex 3.5 3.5 2
      vertex 4 3 1.5
      vertex 4.5 3.5 0
    endloop
  endfacet
  facet normal 0.894427 0 0.447214
    outer loop
      vertex 3.5 3.5 2
      vertex 4.5 3.5 0
      vertex 4.5 4.5 0
    endloop
  endfacet
  facet normal 0.894427 0 0.447214
    outer loop
      vertex 3.5 4.5 2
      vertex 3.5 3.5 2
      vertex 4.5 4.5 0
    endloop
  endfacet
  facet normal -0.894427 0 0.447214
    outer loop
      vertex 3.5 3.5 2
      vertex 3.5 4.5 2
      vertex 2.5 3.5 0
    endloop
  endfacet
  facet normal -0.894427 0 0.447214
    outer loop
      vertex 2.5 3.5 0
      vertex 3.5 4.5 2
      vertex 2.5 4.5 0
    endloop
  endfacet
  facet normal 0.83205 0 0.5547
    outer loop
      vertex 2 4 0.75
      vertex 2.5 3.5 0
      vertex 2.5 4.5 0
    endloop
  endfacet
  facet normal 0 0.83205 0.5547
    outer loop
      vertex 1.5 4.5 0
      vertex 2 4 0.75
      vertex 2.5 4.5 0
    endloop
  endfacet
  facet normal 0.428571 0.857143 0.285714
    outer loop
      vertex 1.5 3.5 3
      vertex 2 4 0.75
      vertex 1.5 4.5 0
    endloop
  endfacet
  facet normal 0 0.948683 0.316228
    outer loop
      vertex 1 4 1.5
      vertex 1.5 3.5 3
      vertex 1.5 4.5 0
    endloop
  endfacet
  facet normal 0.948683 0 0.316228
    outer loop
      vertex 0.5 4.5 3
      vertex 1 4 1.5
      vertex 1.5 4.5 0
    endloop
  endfacet
  facet normal 0 -0.948683 0.316228
    outer loop
      vertex 0.5 3.5 0
      vertex 1 4 1.5
      vertex 0.5 4.5 3
    endloop
  endfacet
  facet normal 0.301511 -0.904534 0.301511
    outer loop
      vertex -0.5 3.5 1
      vertex 0.5 3.5 0
      vertex 0.5 4.5 3
    endloop
  endfacet
  facet normal 0.301511 -0.904534 0.301511
    outer loop
      vertex -0.5 4.5 4
      vertex -0.5 3.5 1
      vertex 0.5 4.5 3
    endloop
  endfacet
  facet normal -0.301511 -0.904534 0.301511
    outer loop
      vertex -1.5 3.5 0
      vertex -0.5 3.5 1
      vertex -0.5 4.5 4
    endloop
  endfacet
  facet normal -0.301511 -0.904534 0.301511
    outer loop
      vertex -1.5 4.5 3
      vertex -1.5 3.5 0
      vertex -0.5 4.5 4
    endloop
  endfacet
  facet normal -0.428571 -0.857143 0.285714
    outer loop
      vertex -2 4 0.75
      vertex -1.5 3.5 0
      vertex -1.5 4.5 3
    endloop
  endfacet
  facet normal -0.857143 -0.428571 0.285714
    outer loop
      vertex -2.5 4.5 0
      vertex -2 4 0.75
      vertex -1.5 4.5 3
    endloop
  endfacet
  facet normal -0.83205 0 0.5547
    outer loop
      vertex -2.5 3.5 0
      vertex -2 4 0.75
      vertex -2.5 4.5 0
    endloop
  endfacet
  facet normal 0.928477 0 0.371391
    outer loop
      vertex -3 4 1.25
      vertex -2.5 3.5 0
      vertex -2.5 4.5 0
    endloop
  endfacet
  facet normal 0.872872 0.218218 0.436436
    outer loop
      vertex -3.5 4.5 2
      vertex -3 4 1.25
      vertex -2.5 4.5 0
    endloop
  endfacet
  facet normal 0.870388 0.348155 0.348155
    outer loop
      vertex -3.5 3.5 3
      vertex -3 4 1.25
      vertex -3.5 4.5 2
    endloop
  endfacet
  facet normal 0.333333 0.666667 0.666667
    outer loop
      vertex -4 4 2.75
      vertex -3.5 3.5 3
      vertex -3.5 4.5 2
    endloop
  endfacet
  facet normal 0.937043 0.156174 0.312348
    outer loop
      vertex -3.5 3.5 3
      vertex -2.5 3.5 0
      vertex -3 4 1.25
    endloop
  endfacet
  facet normal 0.857143 0.428571 0.285714
    outer loop
      vertex -3.5 3.5 3
      vertex -3 3 2.25
      vertex -2.5 3.5 0
    endloop
  endfacet
  facet normal 0.870388 0.348155 0.348155
    outer loop
      vertex -3.5 2.5 4
      vertex -3 3 2.25
      vertex -3.5 3.5 3
    endloop
  endfacet
  facet normal 0.742781 0.557086 0.371391
    outer loop
      vertex -3.5 2.5 4
      vertex -3 2 3.75
      vertex -2.5 2.5 2
    endloop
  endfacet
  facet normal 0.742781 0.557086 0.371391
    outer loop
      vertex -3 3 2.25
      vertex -3.5 2.5 4
      vertex -2.5 2.5 2
    endloop
  endfacet
  facet normal 0.447214 0 0.894427
    outer loop
      vertex -3.5 1.5 4
      vertex -3 2 3.75
      vertex -3.5 2.5 4
    endloop
  endfacet
  facet normal 0.707107 0 0.707107
    outer loop
      vertex -4 2 4.5
      vertex -3.5 1.5 4
      vertex -3.5 2.5 4
    endloop
  endfacet
  facet normal -0.485071 0.727607 0.485071
    outer loop
      vertex -3.5 1.5 4
      vertex -2.5 1.5 5
      vertex -3 2 3.75
    endloop
  endfacet
  facet normal -0.57735 -0.57735 0.57735
    outer loop
      vertex -3.5 1.5 4
      vertex -3 1 4
      vertex -2.5 1.5 5
    endloop
  endfacet
  facet normal 0.57735 0.57735 0.57735
    outer loop
      vertex -3.5 0.5 5
      vertex -3 1 4
      vertex -3.5 1.5 4
    endloop
  endfacet
  facet normal 0.727607 0.485071 0.485071
    outer loop
      vertex -4 1 5.25
      vertex -3.5 0.5 5
      vertex -3.5 1.5 4
    endloop
  endfacet
  facet normal 0.904534 -0.301511 0.301511
    outer loop
      vertex -3.5 0.5 5
      vertex -2.5 0.5 2
      vertex -3 1 4
    endloop
  endfacet
  facet normal 0.857143 0.428571 0.285714
    outer loop
      vertex -3.5 0.5 5
      vertex -3 0 4.25
      vertex -2.5 0.5 2
    endloop
  endfacet
  facet normal 0.870388 0.348155 0.348155
    outer loop
      vertex -3.5 -0.5 6
      vertex -3 0 4.25
      vertex -3.5 0.5 5
    endloop
  endfacet
  facet normal -0.57735 0.57735 0.57735
    outer loop
      vertex -4 0 5
      vertex -3.5 -0.5 6
      vertex -3.5 0.5 5
    endloop
  endfacet
  facet normal 0.742781 0.557086 0.371391
    outer loop
      vertex -3.5 -0.5 6
      vertex -2.5 -0.5 4
      vertex -3 0 4.25
    endloop
  endfacet
  facet normal 0.816497 0.408248 0.408248
    outer loop
      vertex -3.5 -1.5 7
      vertex -2.5 -1.5 5
      vertex -2.5 -0.5 4
    endloop
  endfacet
  facet normal 0.816497 0.408248 0.408248
    outer loop
      vertex -3.5 -0.5 6
      vertex -3.5 -1.5 7
      vertex -2.5 -0.5 4
    endloop
  endfacet
  facet normal -0.727607 0.485071 0.485071
    outer loop
      vertex -4 -1 5.75
      vertex -3.5 -1.5 7
      vertex -3.5 -0.5 6
    endloop
  endfacet
  facet normal 0.816497 -0.408248 0.408248
    outer loop
      vertex -3.5 -1.5 7
      vertex -3 -2 5.5
      vertex -2.5 -1.5 5
    endloop
  endfacet
  facet normal 0.948683 0 0.316228
    outer loop
      vertex -3.5 -2.5 7
      vertex -3 -2 5.5
      vertex -3.5 -1.5 7
    endloop
  endfacet
  facet normal -0.928477 0 0.371391
    outer loop
      vertex -4 -2 5.75
      vertex -3.5 -2.5 7
      vertex -3.5 -1.5 7
    endloop
  endfacet
  facet normal 0.942809 -0.235702 0.235702
    outer loop
      vertex -3.5 -2.5 7
      vertex -2.5 -2.5 3
      vertex -3 -2 5.5
    endloop
  endfacet
  facet normal 0.829561 0.518476 0.20739
    outer loop
      vertex -3.5 -2.5 7
      vertex -3 -3 6.25
      vertex -2.5 -2.5 3
    endloop
  endfacet
  facet normal 0.348155 0.870388 0.348155
    outer loop
      vertex -2.5 -2.5 3
      vertex -2 -3 3.75
      vertex -1.5 -2.5 2
    endloop
  endfacet
  facet normal 0.408248 -0.816497 0.408248
    outer loop
      vertex -2.5 -2.5 3
      vertex -1.5 -2.5 2
      vertex -1.5 -1.5 4
    endloop
  endfacet
  facet normal 0.408248 -0.816497 0.408248
    outer loop
      vertex -2.5 -1.5 5
      vertex -2.5 -2.5 3
      vertex -1.5 -1.5 4
    endloop
  endfacet
  facet normal 0.801784 -0.534522 0.267261
    outer loop
      vertex -3 -2 5.5
      vertex -2.5 -2.5 3
      vertex -2.5 -1.5 5
    endloop
  endfacet
  facet normal -0.218218 -0.872872 0.436436
    outer loop
      vertex -1.5 -2.5 2
      vertex -1 -2 3.25
      vertex -1.5 -1.5 4
    endloop
  endfacet
  facet normal -0.872872 -0.218218 0.436436
    outer loop
      vertex -1.5 -2.5 2
      vertex -0.5 -2.5 4
      vertex -1 -2 3.25
    endloop
  endfacet
  facet normal -0.742781 0.557086 0.371391
    outer loop
      vertex -1.5 -2.5 2
      vertex -1 -3 3.75
      vertex -0.5 -2.5 4
    endloop
  endfacet
  facet normal 0.485071 0.727607 0.485071
    outer loop
      vertex -0.5 -2.5 4
      vertex 0 -3 4.25
      vertex 0.5 -2.5 3
    endloop
  endfacet
  facet normal -0.333333 0.666667 0.666667
    outer loop
      vertex -1 -2 3.25
      vertex -0.5 -2.5 4
      vertex -0.5 -1.5 3
    endloop
  endfacet
  facet normal 0.218218 0.872872 0.436436
    outer loop
      vertex -2.5 -0.5 4
      vertex -2 0 2.75
      vertex -2.5 0.5 2
    endloop
  endfacet
  facet normal 0.485071 0.727607 0.485071
    outer loop
      vertex -2.5 -0.5 4
      vertex -1.5 -0.5 3
      vertex -2 0 2.75
    endloop
  endfacet
  facet normal 0.745356 0.596285 0.298142
    outer loop
      vertex -3 0 4.25
      vertex -2.5 -0.5 4
      vertex -2.5 0.5 2
    endloop
  endfacet
  facet normal 0.333333 0.666667 0.666667
    outer loop
      vertex -2 0 2.75
      vertex -1.5 -0.5 3
      vertex -1.5 0.5 2
    endloop
  endfacet
  facet normal 0.333333 0.666667 0.666667
    outer loop
      vertex -1.5 0.5 2
      vertex -1 1 1.25
      vertex -1.5 1.5 1
    endloop
  endfacet
  facet normal 0.666667 0.333333 0.666667
    outer loop
      vertex -1.5 0.5 2
      vertex -0.5 0.5 1
      vertex -1 1 1.25
    endloop
  endfacet
  facet normal 0 0.83205 0.5547
    outer loop
      vertex -2.5 0.5 2
      vertex -2 0 2.75
      vertex -1.5 0.5 2
    endloop
  endfacet
  facet normal 0 -0.707107 0.707107
    outer loop
      vertex -2.5 0.5 2
      vertex -1.5 0.5 2
      vertex -2 1 2.5
    endloop
  endfacet
  facet normal 0.816497 0.408248 0.408248
    outer loop
      vertex -2 1 2.5
      vertex -1.5 0.5 2
      vertex -1.5 1.5 1
    endloop
  endfacet
  facet normal 0 0 1
    outer loop
      vertex 1.5 -0.5 1
      vertex 0.5 0.5 1
      vertex 0.5 -0.5 1
    endloop
  endfacet
  facet normal 0 0 1
    outer loop
      vertex 1.5 0.5 1
      vertex 0.5 0.5 1
      vertex 1.5 -0.5 1
    endloop
  endfacet
  facet normal 0 0 1
    outer loop
      vertex -0.5 0.5 1
      vertex 0.5 0.5 1
      vertex 1.5 1.5 1
    endloop
  endfacet
  facet normal 0 0 1
    outer loop
      vertex 1.5 1.5 1
      vertex 0.5 0.5 1
      vertex 1.5 0.5 1
    endloop
  endfacet
  facet normal 0 0 1
    outer loop
      vertex 0.5 1.5 1
      vertex -0.5 0.5 1
      vertex 1.5 1.5 1
    endloop
  endfacet
  facet normal 0 0 1
    outer loop
      vertex -0.5 1.5 1
      vertex -0.5 0.5 1
      vertex 0.5 1.5 1
    endloop
  endfacet
  facet normal 0 0 1
    outer loop
      vertex 1 2 1
      vertex 0.5 1.5 1
      vertex 1.5 1.5 1
    endloop
  endfacet
  facet normal 0 0.447214 0.894427
    outer loop
      vertex -0.5 0.5 1
      vertex 0 0 1.25
      vertex 0.5 0.5 1
    endloop
  endfacet
  facet normal 0.333333 0.666667 0.666667
    outer loop
      vertex -0.5 -0.5 2
      vertex 0 0 1.25
      vertex -0.5 0.5 1
    endloop
  endfacet
  facet normal 0.447214 0 0.894427
    outer loop
      vertex -1 1 1.25
      vertex -0.5 0.5 1
      vertex -0.5 1.5 1
    endloop
  endfacet
  facet normal 0.666667 0.333333 0.666667
    outer loop
      vertex -0.5 -0.5 2
      vertex 0.5 -0.5 1
      vertex 0 0 1.25
    endloop
  endfacet
  facet normal 0 0.447214 0.894427
    outer loop
      vertex 0.5 -0.5 1
      vertex 1 -1 1.25
      vertex 1.5 -0.5 1
    endloop
  endfacet
  facet normal 0.333333 0.666667 0.666667
    outer loop
      vertex 0.5 -1.5 2
      vertex 1 -1 1.25
      vertex 0.5 -0.5 1
    endloop
  endfacet
  facet normal 0.447214 0 0.894427
    outer loop
      vertex 0 0 1.25
      vertex 0.5 -0.5 1
      vertex 0.5 0.5 1
    endloop
  endfacet
  facet normal 0.666667 0.333333 0.666667
    outer loop
      vertex 0.5 -1.5 2
      vertex 1.5 -1.5 1
      vertex 1 -1 1.25
    endloop
  endfacet
  facet normal 0 0 1
    outer loop
      vertex 1.5 -1.5 1
      vertex 2.5 -1.5 1
      vertex 2.5 -0.5 1
    endloop
  endfacet
  facet normal 0 0 1
    outer loop
      vertex 1.5 -0.5 1
      vertex 1.5 -1.5 1
      vertex 2.5 -0.5 1
    endloop
  endfacet
  facet normal 0 0.894427 0.447214
    outer loop
      vertex 1.5 -1.5 1
      vertex 2 -2 2
      vertex 2.5 -1.5 1
    endloop
  endfacet
  facet normal -0.57735 0.57735 0.57735
    outer loop
      vertex 1.5 -2.5 2
      vertex 2 -2 2
      vertex 1.5 -1.5 1
    endloop
  endfacet
  facet normal 0.447214 0 0.894427
    outer loop
      vertex 1 -1 1.25
      vertex 1.5 -1.5 1
      vertex 1.5 -0.5 1
    endloop
  endfacet
  facet normal -0.666667 0.666667 0.333333
    outer loop
      vertex 1.5 -2.5 2
      vertex 2.5 -2.5 4
      vertex 2 -2 2
    endloop
  endfacet
  facet normal -0.872872 -0.218218 0.436436
    outer loop
      vertex 1.5 -2.5 2
      vertex 2 -3 2.75
      vertex 2.5 -2.5 4
    endloop
  endfacet
  facet normal 0.666667 -0.333333 0.666667
    outer loop
      vertex -1.5 -1.5 4
      vertex -1 -2 3.25
      vertex -0.5 -1.5 3
    endloop
  endfacet
  facet normal 0.534522 0.801784 0.267261
    outer loop
      vertex 2.5 -2.5 4
      vertex 3 -2 1.5
      vertex 2.5 -1.5 1
    endloop
  endfacet
  facet normal 0.801784 0.534522 0.267261
    outer loop
      vertex 2.5 -2.5 4
      vertex 3.5 -2.5 1
      vertex 3 -2 1.5
    endloop
  endfacet
  facet normal 0.904534 -0.301511 0.301511
    outer loop
      vertex 2.5 -2.5 4
      vertex 3 -3 2
      vertex 3.5 -2.5 1
    endloop
  endfacet
  facet normal -0.301511 0.904534 0.301511
    outer loop
      vertex 2 -2 2
      vertex 2.5 -2.5 4
      vertex 2.5 -1.5 1
    endloop
  endfacet
  facet normal -0.727607 0.485071 0.485071
    outer loop
      vertex 3.5 -2.5 1
      vertex 4 -2 1.25
      vertex 3.5 -1.5 0
    endloop
  endfacet
  facet normal 0.816497 0.408248 0.408248
    outer loop
      vertex 3 -2 1.5
      vertex 3.5 -2.5 1
      vertex 3.5 -1.5 0
    endloop
  endfacet
  facet normal 0.408248 0.816497 0.408248
    outer loop
      vertex 2.5 -1.5 1
      vertex 3 -2 1.5
      vertex 3.5 -1.5 0
    endloop
  endfacet
  facet normal 0.707107 0 0.707107
    outer loop
      vertex 2.5 -1.5 1
      vertex 3.5 -1.5 0
      vertex 3.5 -0.5 0
    endloop
  endfacet
  facet normal 0.707107 0 0.707107
    outer loop
      vertex 2.5 -0.5 1
      vertex 2.5 -1.5 1
      vertex 3 0 0.5
    endloop
  endfacet
  facet normal 0.707107 0 0.707107
    outer loop
      vertex 3 0 0.5
      vertex 2.5 -1.5 1
      vertex 3.5 -0.5 0
    endloop
  endfacet
  facet normal 0 0.707107 0.707107
    outer loop
      vertex 2.5 -0.5 1
      vertex 3 0 0.5
      vertex 2.5 0.5 0
    endloop
  endfacet
  facet normal -0.707107 0 0.707107
    outer loop
      vertex 2.5 0.5 0
      vertex 3 0 0.5
      vertex 3.5 0.5 1
    endloop
  endfacet
  facet normal -0.666667 0.333333 0.666667
    outer loop
      vertex 2.5 0.5 0
      vertex 3.5 0.5 1
      vertex 3 1 0.25
    endloop
  endfacet
  facet normal -0.333333 0.666667 0.666667
    outer loop
      vertex 3 1 0.25
      vertex 3.5 0.5 1
      vertex 3.5 1.5 0
    endloop
  endfacet
  facet normal 0 0.447214 0.894427
    outer loop
      vertex 2.5 1.5 0
      vertex 3 1 0.25
      vertex 3.5 1.5 0
    endloop
  endfacet
  facet normal 0 -0.928477 0.371391
    outer loop
      vertex 2.5 1.5 0
      vertex 3.5 1.5 0
      vertex 3 2 1.25
    endloop
  endfacet
  facet normal 0.218218 -0.872872 0.436436
    outer loop
      vertex 3 2 1.25
      vertex 3.5 1.5 0
      vertex 3.5 2.5 2
    endloop
  endfacet
  facet normal 0.707107 0 0.707107
    outer loop
      vertex 3.5 2.5 2
      vertex 4 3 1.5
      vertex 3.5 3.5 2
    endloop
  endfacet
  facet normal 0.348155 -0.870388 0.348155
    outer loop
      vertex 2.5 2.5 3
      vertex 3 2 1.25
      vertex 3.5 2.5 2
    endloop
  endfacet
  facet normal 0.485071 0.727607 0.485071
    outer loop
      vertex 2.5 2.5 3
      vertex 3.5 2.5 2
      vertex 3 3 1.75
    endloop
  endfacet
  facet normal -0.447214 0 0.894427
    outer loop
      vertex 3 3 1.75
      vertex 3.5 2.5 2
      vertex 3.5 3.5 2
    endloop
  endfacet
  facet normal -0.742781 0.557086 0.371391
    outer loop
      vertex 2.5 3.5 0
      vertex 3 3 1.75
      vertex 3.5 3.5 2
    endloop
  endfacet
  facet normal -0.156174 0.937043 0.312348
    outer loop
      vertex 2.5 2.5 3
      vertex 3 3 1.75
      vertex 2.5 3.5 0
    endloop
  endfacet
  facet normal 0 0.948683 0.316228
    outer loop
      vertex 2 3 1.5
      vertex 2.5 2.5 3
      vertex 2.5 3.5 0
    endloop
  endfacet
  facet normal 0.948683 0 0.316228
    outer loop
      vertex 1.5 3.5 3
      vertex 2 3 1.5
      vertex 2.5 3.5 0
    endloop
  endfacet
  facet normal 0.857143 0.428571 0.285714
    outer loop
      vertex 1.5 3.5 3
      vertex 2.5 3.5 0
      vertex 2 4 0.75
    endloop
  endfacet
  facet normal 0 -0.948683 0.316228
    outer loop
      vertex 1.5 2.5 0
      vertex 2 3 1.5
      vertex 1.5 3.5 3
    endloop
  endfacet
  facet normal -0.156174 -0.937043 0.312348
    outer loop
      vertex 1 3 1.25
      vertex 1.5 2.5 0
      vertex 1.5 3.5 3
    endloop
  endfacet
  facet normal -0.937043 -0.156174 0.312348
    outer loop
      vertex 0.5 3.5 0
      vertex 1 3 1.25
      vertex 1.5 3.5 3
    endloop
  endfacet
  facet normal -0.948683 0 0.316228
    outer loop
      vertex 0.5 3.5 0
      vertex 1.5 3.5 3
      vertex 1 4 1.5
    endloop
  endfacet
  facet normal -0.218218 0.872872 0.436436
    outer loop
      vertex 0.5 2.5 2
      vertex 1 3 1.25
      vertex 0.5 3.5 0
    endloop
  endfacet
  facet normal 0.218218 0.872872 0.436436
    outer loop
      vertex 0 3 1.25
      vertex 0.5 2.5 2
      vertex 0.5 3.5 0
    endloop
  endfacet
  facet normal 0.485071 0.727607 0.485071
    outer loop
      vertex -0.5 3.5 1
      vertex 0 3 1.25
      vertex 0.5 3.5 0
    endloop
  endfacet
  facet normal 0.333333 0.666667 0.666667
    outer loop
      vertex -0.5 2.5 2
      vertex 0 3 1.25
      vertex -0.5 3.5 1
    endloop
  endfacet
  facet normal -0.333333 0.666667 0.666667
    outer loop
      vertex -1 3 1.25
      vertex -0.5 2.5 2
      vertex -0.5 3.5 1
    endloop
  endfacet
  facet normal -0.485071 0.727607 0.485071
    outer loop
      vertex -1.5 3.5 0
      vertex -1 3 1.25
      vertex -0.5 3.5 1
    endloop
  endfacet
  facet normal -0.218218 0.872872 0.436436
    outer loop
      vertex -1.5 2.5 2
      vertex -1 3 1.25
      vertex -1.5 3.5 0
    endloop
  endfacet
  facet normal 0 0.894427 0.447214
    outer loop
      vertex -1.5 2.5 2
      vertex -1.5 3.5 0
      vertex -2.5 2.5 2
    endloop
  endfacet
  facet normal 0 0.894427 0.447214
    outer loop
      vertex -2.5 2.5 2
      vertex -1.5 3.5 0
      vertex -2.5 3.5 0
    endloop
  endfacet
  facet normal 0 -0.83205 0.5547
    outer loop
      vertex -2.5 3.5 0
      vertex -1.5 3.5 0
      vertex -2 4 0.75
    endloop
  endfacet
  facet normal 0.745356 0.596285 0.298142
    outer loop
      vertex -3 3 2.25
      vertex -2.5 2.5 2
      vertex -2.5 3.5 0
    endloop
  endfacet
  facet normal 0 0.707107 0.707107
    outer loop
      vertex -2.5 2.5 2
      vertex -2 2 2.5
      vertex -1.5 2.5 2
    endloop
  endfacet
  facet normal 0.534522 0.801784 0.267261
    outer loop
      vertex -2.5 1.5 5
      vertex -2 2 2.5
      vertex -2.5 2.5 2
    endloop
  endfacet
  facet normal 0.156174 0.937043 0.312348
    outer loop
      vertex -3 2 3.75
      vertex -2.5 1.5 5
      vertex -2.5 2.5 2
    endloop
  endfacet
  facet normal 0.942809 0.235702 0.235702
    outer loop
      vertex -2.5 1.5 5
      vertex -1.5 1.5 1
      vertex -2 2 2.5
    endloop
  endfacet
  facet normal 0.942809 -0.235702 0.235702
    outer loop
      vertex -2.5 1.5 5
      vertex -2 1 2.5
      vertex -1.5 1.5 1
    endloop
  endfacet
  facet normal 0.534522 -0.801784 0.267261
    outer loop
      vertex -2.5 0.5 2
      vertex -2 1 2.5
      vertex -2.5 1.5 5
    endloop
  endfacet
  facet normal 0.301511 -0.904534 0.301511
    outer loop
      vertex -3 1 4
      vertex -2.5 0.5 2
      vertex -2.5 1.5 5
    endloop
  endfacet
  facet normal 0 -0.707107 0.707107
    outer loop
      vertex -0.5 1.5 1
      vertex 0.5 1.5 1
      vertex 0.5 2.5 2
    endloop
  endfacet
  facet normal 0 -0.707107 0.707107
    outer loop
      vertex -1.5 1.5 1
      vertex -0.5 1.5 1
      vertex 0.5 2.5 2
    endloop
  endfacet
  facet normal 0 -0.707107 0.707107
    outer loop
      vertex -0.5 2.5 2
      vertex -1.5 1.5 1
      vertex 0.5 2.5 2
    endloop
  endfacet
  facet normal 0 -0.707107 0.707107
    outer loop
      vertex -1.5 2.5 2
      vertex -1.5 1.5 1
      vertex -0.5 2.5 2
    endloop
  endfacet
  facet normal 0 0.447214 0.894427
    outer loop
      vertex -1.5 1.5 1
      vertex -1 1 1.25
      vertex -0.5 1.5 1
    endloop
  endfacet
  facet normal 0.816497 -0.408248 0.408248
    outer loop
      vertex -2 2 2.5
      vertex -1.5 1.5 1
      vertex -1.5 2.5 2
    endloop
  endfacet
  facet normal 0.57735 -0.57735 0.57735
    outer loop
      vertex 0.5 1.5 1
      vertex 1 2 1
      vertex 0.5 2.5 2
    endloop
  endfacet
  facet normal 0.894427 0 0.447214
    outer loop
      vertex 0.5 2.5 2
      vertex 1 2 1
      vertex 1.5 2.5 0
    endloop
  endfacet
  facet normal 0.57735 0.57735 0.57735
    outer loop
      vertex 1 2 1
      vertex 1.5 1.5 1
      vertex 1.5 2.5 0
    endloop
  endfacet
  facet normal -0.57735 0.57735 0.57735
    outer loop
      vertex 1.5 1.5 1
      vertex 2 2 1
      vertex 1.5 2.5 0
    endloop
  endfacet
  facet normal 0.57735 -0.57735 0.57735
    outer loop
      vertex 1.5 1.5 1
      vertex 2.5 1.5 0
      vertex 2 2 1
    endloop
  endfacet
  facet normal 0.707107 0 0.707107
    outer loop
      vertex 1.5 0.5 1
      vertex 2.5 0.5 0
      vertex 2.5 1.5 0
    endloop
  endfacet
  facet normal 0.707107 0 0.707107
    outer loop
      vertex 1.5 1.5 1
      vertex 1.5 0.5 1
      vertex 2.5 1.5 0
    endloop
  endfacet
  facet normal 0.666667 0.333333 0.666667
    outer loop
      vertex 1.5 0.5 1
      vertex 2 0 0.75
      vertex 2.5 0.5 0
    endloop
  endfacet
  facet normal 0.447214 0 0.894427
    outer loop
      vertex 1.5 -0.5 1
      vertex 2 0 0.75
      vertex 1.5 0.5 1
    endloop
  endfacet
  facet normal 0 0.447214 0.894427
    outer loop
      vertex 1.5 -0.5 1
      vertex 2.5 -0.5 1
      vertex 2 0 0.75
    endloop
  endfacet
  facet normal 0.333333 0.666667 0.666667
    outer loop
      vertex 2 0 0.75
      vertex 2.5 -0.5 1
      vertex 2.5 0.5 0
    endloop
  endfacet
  facet normal -0.447214 0 0.894427
    outer loop
      vertex 2.5 0.5 0
      vertex 3 1 0.25
      vertex 2.5 1.5 0
    endloop
  endfacet
  facet normal 0.156174 -0.937043 0.312348
    outer loop
      vertex 2.5 1.5 0
      vertex 3 2 1.25
      vertex 2.5 2.5 3
    endloop
  endfacet
  facet normal -0.301511 -0.904534 0.301511
    outer loop
      vertex 2 2 1
      vertex 2.5 1.5 0
      vertex 2.5 2.5 3
    endloop
  endfacet
  facet normal -0.904534 -0.301511 0.301511
    outer loop
      vertex 1.5 2.5 0
      vertex 2 2 1
      vertex 2.5 2.5 3
    endloop
  endfacet
  facet normal -0.948683 0 0.316228
    outer loop
      vertex 1.5 2.5 0
      vertex 2.5 2.5 3
      vertex 2 3 1.5
    endloop
  endfacet
  facet normal 0.872872 -0.218218 0.436436
    outer loop
      vertex 0.5 2.5 2
      vertex 1.5 2.5 0
      vertex 1 3 1.25
    endloop
  endfacet
  facet normal 0 0.83205 0.5547
    outer loop
      vertex -0.5 2.5 2
      vertex 0.5 2.5 2
      vertex 0 3 1.25
    endloop
  endfacet
  facet normal 0 0.83205 0.5547
    outer loop
      vertex -1.5 2.5 2
      vertex -0.5 2.5 2
      vertex -1 3 1.25
    endloop
  endfacet
endsolid OpenSCAD_Model
